USFL
nRows=254
nColumns=2
inDegrees=yes
endheader
time	tib_ant_r	
7.01915	 58.546594	
7.05242	 58.560333	
7.08569	 58.570455	
7.11895	 58.549290	
7.15222	 58.560169	
7.18548	 58.573994	
7.21875	 58.584966	
7.25202	 58.578630	
7.28528	 58.588149	
7.31855	 58.591916	
7.35181	 58.594811	
7.38508	 58.618629	
7.41835	 58.598349	
7.45161	 58.585268	
7.48488	 58.591657	
7.51815	 58.588957	
7.55141	 58.588390	
7.58468	 58.585711	
7.61794	 58.587814	
7.65121	 58.587145	
7.68448	 58.618916	
7.71774	 58.597805	
7.75101	 58.624157	
7.78427	 58.631058	
7.81754	 58.612298	
7.85081	 58.616217	
7.88407	 58.602620	
7.91734	 58.607426	
7.9506	 58.621830	
7.98387	 58.623728	
8.01714	 58.649388	
8.0504	 58.666348	
8.08367	 58.668685	
8.11694	 58.632243	
8.1502	 58.661295	
8.18347	 58.677175	
8.21673	 58.677352	
8.25	 58.656461	
8.28327	 58.666931	
8.31653	 58.683489	
8.3498	 58.668913	
8.38306	 58.679701	
8.41633	 58.653933	
8.4496	 58.664473	
8.48286	 58.621527	
8.51613	 58.647606	
8.5494	 58.644911	
8.58266	 58.600751	
8.61593	 58.646951	
8.64919	 58.641501	
8.68246	 58.632691	
8.71573	 58.645730	
8.74899	 58.636279	
8.78226	 58.633196	
8.81552	 58.629235	
8.84879	 58.631692	
8.88206	 58.612396	
8.91532	 58.612071	
8.94859	 58.614214	
8.98185	 58.609409	
9.01512	 58.612300	
9.04839	 58.618320	
9.08165	 58.624892	
9.11492	 58.604485	
9.14819	 58.606118	
9.18145	 58.638448	
9.21472	 58.675681	
9.24798	 58.551440	
9.28125	 58.446590	
9.31452	 58.470079	
9.34778	 58.336197	
9.38105	 58.050554	
9.41431	 58.056635	
9.44758	 57.789575	
9.48085	 57.440953	
9.51411	 57.490246	
9.54738	 57.179342	
9.58065	 57.212088	
9.61391	 56.742435	
9.64718	 56.359315	
9.68044	 56.187827	
9.71371	 56.023937	
9.74698	 54.057693	
9.78024	 54.072200	
9.81351	 52.716676	
9.84677	 52.913037	
9.88004	 53.015431	
9.91331	 52.402998	
9.94657	 52.483499	
9.97984	 52.023882	
10.0131	 51.784877	
10.0464	 51.660466	
10.0796	 51.792648	
10.1129	 51.591290	
10.1462	 51.504333	
10.1794	 51.520982	
10.2127	 51.583505	
10.246	 51.457595	
10.2792	 51.285199	
10.3125	 51.411922	
10.3458	 51.383913	
10.379	 51.201260	
10.4123	 51.156293	
10.4456	 50.995626	
10.4788	 50.791054	
10.5121	 50.701707	
10.5454	 50.566998	
10.5786	 50.435506	
10.6119	 50.155597	
10.6452	 49.988558	
10.6784	 49.884551	
10.7117	 49.778124	
10.745	 49.646520	
10.7782	 49.480416	
10.8115	 49.676110	
10.8448	 49.666816	
10.878	 49.537876	
10.9113	 49.394590	
10.9446	 49.229767	
10.9778	 48.929396	
11.0111	 48.769293	
11.0444	 48.570798	
11.0776	 48.483014	
11.1109	 48.354884	
11.1442	 48.243604	
11.1774	 48.194756	
11.2107	 48.079546	
11.244	 48.017193	
11.2772	 47.971131	
11.3105	 47.898543	
11.3437	 47.842115	
11.377	 47.738717	
11.4103	 47.776495	
11.4435	 47.743341	
11.4768	 47.687029	
11.5101	 47.634732	
11.5433	 47.626945	
11.5766	 47.569291	
11.6099	 47.566686	
11.6431	 47.491134	
11.6764	 47.515900	
11.7097	 47.451907	
11.7429	 47.545927	
11.7762	 47.620792	
11.8095	 47.669803	
11.8427	 47.681718	
11.876	 47.679239	
11.9093	 47.567381	
11.9425	 47.525135	
11.9758	 47.565351	
12.0091	 47.429645	
12.0423	 47.455351	
12.0756	 47.405677	
12.1089	 47.318537	
12.1421	 47.543015	
12.1754	 47.632866	
12.2087	 47.954388	
12.2419	 48.019986	
12.2752	 47.902346	
12.3085	 47.739600	
12.3417	 47.627851	
12.375	 47.707511	
12.4083	 47.551816	
12.4415	 47.674060	
12.4748	 47.624156	
12.5081	 47.521388	
12.5413	 47.639333	
12.5746	 47.665747	
12.6079	 47.590977	
12.6411	 47.645788	
12.6744	 47.625799	
12.7077	 47.594605	
12.7409	 47.590656	
12.7742	 47.534581	
12.8075	 47.547523	
12.8407	 47.584866	
12.874	 47.617646	
12.9073	 47.676898	
12.9405	 47.762320	
12.9738	 47.793252	
13.0071	 47.814707	
13.0403	 47.806806	
13.0736	 47.805665	
13.1069	 47.769679	
13.1401	 47.678774	
13.1734	 47.743145	
13.2067	 47.752982	
13.2399	 47.713740	
13.2732	 47.751696	
13.3065	 47.790590	
13.3397	 47.761573	
13.373	 47.822625	
13.4062	 47.884930	
13.4395	 47.898865	
13.4728	 47.920017	
13.506	 47.853109	
13.5393	 47.876804	
13.5726	 47.903103	
13.6058	 47.819028	
13.6391	 47.906338	
13.6724	 47.978775	
13.7056	 47.964122	
13.7389	 48.055540	
13.7722	 48.208337	
13.8054	 48.171625	
13.8387	 48.510793	
13.872	 48.516764	
13.9052	 48.657159	
13.9385	 48.674594	
13.9718	 48.702723	
14.005	 48.773277	
14.0383	 48.873913	
14.0716	 48.961931	
14.1048	 49.070822	
14.1381	 49.187165	
14.1714	 49.266838	
14.2046	 49.343292	
14.2379	 49.502679	
14.2712	 49.532931	
14.3044	 49.669957	
14.3377	 49.759028	
14.371	 49.961482	
14.4042	 50.194214	
14.4375	 50.372532	
14.4708	 50.474045	
14.504	 50.573582	
14.5373	 50.717955	
14.5706	 51.175461	
14.6038	 51.250839	
14.6371	 51.359420	
14.6704	 51.517797	
14.7036	 51.472824	
14.7369	 51.526229	
14.7702	 51.867480	
14.8034	 51.885178	
14.8367	 51.988499	
14.87	 52.328845	
14.9032	 52.485820	
14.9365	 52.818105	
14.9698	 52.963593	
15.003	 53.257786	
15.0363	 53.308804	
15.0696	 53.445710	
15.1028	 53.663695	
15.1361	 53.881192	
15.1694	 53.943055	
15.2026	 54.078964	
15.2359	 54.187679	
15.2692	 54.147702	
15.3024	 54.239067	
15.3357	 54.117907	
15.369	 54.167866	
15.4022	 54.214706	
15.4355	 54.173098	
